<svg width="42" height="42" viewBox="0 0 42 42" fill="none" xmlns="http://www.w3.org/2000/svg"><g clip-path="url(#clip0_5372_32179)">
<path d="M25.96 17.8V17C25.96 16.5582 25.6018 16.2 25.16 16.2H19.16C18.7182 16.2 18.36 15.8418 18.36 15.4C18.36 14.9582 18.7182 14.6 19.16 14.6L25.16 14.6C26.4855 14.6 27.56 15.6745 27.56 17V17.8C27.56 18.2418 27.2018 18.6 26.76 18.6C26.3182 18.6 25.96 18.2418 25.96 17.8Z" fill="#20BEE0"/>
<path d="M21.16 25.8L24.76 25.8C25.2019 25.8 25.56 25.4418 25.56 25L25.56 24.6C25.56 24.1582 25.9182 23.8 26.36 23.8C26.8019 23.8 27.16 24.1582 27.16 24.6L27.16 25C27.16 26.3255 26.0855 27.4 24.76 27.4L21.16 27.4C20.7182 27.4 20.36 27.0418 20.36 26.6C20.36 26.1582 20.7182 25.8 21.16 25.8Z" fill="#20BEE0"/>
<path d="M12.76 13.8C12.76 12.9164 13.4764 12.2 14.36 12.2H17.5774C18.4611 12.2 19.1774 12.9164 19.1774 13.8V17.0174C19.1774 17.9011 18.4611 18.6174 17.5774 18.6174H14.36C13.4764 18.6174 12.76 17.9011 12.76 17.0174V13.8Z" fill="#EDF9FC"/>
<path d="M18.3777 13.8C18.3777 13.3582 18.0194 13.0001 17.5777 13H14.3601C13.9183 13 13.5601 13.3582 13.5601 13.8V17.0176C13.5602 17.4593 13.9183 17.8176 14.3601 17.8176H17.5777C18.0194 17.8175 18.3776 17.4593 18.3777 17.0176V13.8ZM19.9777 17.0176C19.9776 18.3429 18.903 19.4175 17.5777 19.4176H14.3601C13.0347 19.4176 11.9602 18.343 11.9601 17.0176V13.8C11.9601 12.4745 13.0346 11.4 14.3601 11.4H17.5777C18.9031 11.4001 19.9777 12.4746 19.9777 13.8V17.0176Z" fill="#20BEE0"/>
<path d="M14.1427 25.1218C14.1427 24.2381 14.859 23.5218 15.7427 23.5218H18.9601C19.8438 23.5218 20.5601 24.2381 20.5601 25.1218V28.3392C20.5601 29.2229 19.8438 29.9392 18.9601 29.9392H15.7427C14.859 29.9392 14.1427 29.2229 14.1427 28.3392V25.1218Z" fill="#E3FCF7"/>
<path d="M19.7602 25.1218C19.7602 24.68 19.402 24.3219 18.9602 24.3218H15.7427C15.3008 24.3218 14.9427 24.6799 14.9427 25.1218V28.3393C14.9427 28.7811 15.3009 29.1393 15.7427 29.1393H18.9602C19.4019 29.1393 19.7601 28.781 19.7602 28.3393V25.1218ZM21.3602 28.3393C21.3601 29.6647 20.2856 30.7393 18.9602 30.7393H15.7427C14.4172 30.7393 13.3427 29.6648 13.3427 28.3393V25.1218C13.3427 23.7963 14.4172 22.7218 15.7427 22.7218H18.9602C20.2856 22.7219 21.3602 23.7963 21.3602 25.1218V28.3393Z" fill="#17CAA6"/>
<path d="M23.16 19.4C23.16 18.5163 23.8764 17.8 24.76 17.8H27.9774C28.8611 17.8 29.5774 18.5163 29.5774 19.4V22.6174C29.5774 23.501 28.8611 24.2174 27.9774 24.2174H24.76C23.8764 24.2174 23.16 23.501 23.16 22.6174V19.4Z" fill="#FBEFFD"/>
<path d="M28.7776 19.4C28.7776 18.9582 28.4193 18.6001 27.9776 18.6H24.76C24.3182 18.6 23.96 18.9582 23.96 19.4V22.6176C23.9601 23.0593 24.3182 23.4176 24.76 23.4176H27.9776C28.4193 23.4175 28.7775 23.0593 28.7776 22.6176V19.4ZM30.3776 22.6176C30.3775 23.9429 29.3029 25.0175 27.9776 25.0176H24.76C23.4346 25.0176 22.3601 23.943 22.36 22.6176V19.4C22.36 18.0745 23.4345 17 24.76 17H27.9776C29.303 17.0001 30.3776 18.0746 30.3776 19.4V22.6176Z" fill="#AD13C1"/>
</g>
<defs>
<clipPath id="clip0_5372_32179">
<rect width="20" height="20" fill="white" transform="translate(11 11)"/>
</clipPath>
</defs>
</svg>
