<svg width="42" height="42" viewBox="0 0 42 42" fill="none" xmlns="http://www.w3.org/2000/svg"><g clip-path="url(#clip0_5372_32134)">
<path fill-rule="evenodd" clip-rule="evenodd" d="M24.6906 13.432C22.2139 13.3898 19.7654 13.3889 17.3461 13.432C14.1883 13.436 11.8711 15.8257 11.8711 19.0135V23.0312C11.8711 26.2191 14.1883 28.6087 17.3463 28.6127C19.7517 28.6549 22.1985 28.6567 24.6909 28.6127C27.849 28.6087 30.1651 26.2189 30.1651 23.0312V19.0135C30.1651 15.8268 27.849 13.4359 24.6906 13.432Z" fill="#E7F3FF"/>
<path d="M17.3461 13.432C19.7654 13.3889 22.2139 13.3898 24.6906 13.432C27.849 13.4359 30.1652 15.8268 30.1652 19.0136V23.0312C30.1652 26.2188 27.849 28.6088 24.691 28.6128C22.1986 28.6568 19.7515 28.655 17.3461 28.6128C14.1883 28.6088 11.8711 26.219 11.8711 23.0312V19.0136C11.8711 15.8257 14.1883 13.4361 17.3461 13.432ZM24.6633 15.0316C22.2041 14.9897 19.7743 14.9889 17.3746 15.0316C17.3658 15.0318 17.3569 15.032 17.348 15.032C15.1052 15.0349 13.4711 16.6762 13.4711 19.0136V23.0312C13.4711 25.3687 15.1055 27.01 17.3484 27.0128C17.357 27.0129 17.3656 27.0127 17.3742 27.0128C19.7613 27.0547 22.1894 27.0565 24.6625 27.0128C24.6712 27.0127 24.6803 27.0129 24.6891 27.0128C26.9316 27.0099 28.5652 25.3688 28.5652 23.0312V19.0136C28.5652 16.6766 26.9314 15.0347 24.6887 15.032C24.6802 15.032 24.6717 15.0317 24.6633 15.0316Z" fill="#247FF9"/>
<path d="M29.8 18.2V18.2C30.4628 18.2 31 18.7786 31 19.4923V22.5077C31 23.2214 30.4628 23.8 29.8 23.8V23.8V18.2Z" fill="#247FF9"/>
<path d="M12.2 23.8V23.8C11.5372 23.8 11 23.2214 11 22.5077L11 19.4923C11 18.7786 11.5372 18.2 12.2 18.2V18.2L12.2 23.8Z" fill="#247FF9"/>
<path d="M19 19.4C19 20.2837 18.2837 21 17.4 21C16.5164 21 15.8 20.2837 15.8 19.4C15.8 18.5163 16.5164 17.8 17.4 17.8C18.2837 17.8 19 18.5163 19 19.4Z" fill="#247FF9"/>
<path d="M26.2 19.4C26.2 20.2837 25.4837 21 24.6 21C23.7163 21 23 20.2837 23 19.4C23 18.5163 23.7163 17.8 24.6 17.8C25.4837 17.8 26.2 18.5163 26.2 19.4Z" fill="#247FF9"/>
<path d="M21.018 24.9383C22.4034 24.9383 23.573 24.0143 23.9442 22.7489C24.0796 22.2872 23.677 21.8893 23.1959 21.8893H18.8401C18.359 21.8893 17.9565 22.2872 18.0919 22.7489C18.463 24.0143 19.6326 24.9383 21.018 24.9383Z" fill="#247FF9"/>
<path d="M21.8 12.2C21.8 12.6418 21.4418 13 21 13C20.5581 13 20.2 12.6418 20.2 12.2C20.2 11.7582 20.5581 11.4 21 11.4C21.4418 11.4 21.8 11.7582 21.8 12.2Z" fill="#247FF9"/>
</g>
<defs>
<clipPath id="clip0_5372_32134">
<rect width="20" height="20" fill="white" transform="translate(11 11)"/>
</clipPath>
</defs>
</svg>
