<svg width="42" height="42" viewBox="0 0 42 42" fill="none" xmlns="http://www.w3.org/2000/svg"><path d="M11 17C11 14.7909 12.7909 13 15 13H27C29.2091 13 31 14.7909 31 17V25C31 27.2091 29.2091 29 27 29H15C12.7909 29 11 27.2091 11 25V17Z" fill="#F6F9E6"/>
<path d="M27 27.4V29H15V27.4H27ZM29.4 25V17C29.4 15.6745 28.3255 14.6 27 14.6H15C13.6745 14.6 12.6 15.6745 12.6 17V25C12.6 26.3255 13.6745 27.4 15 27.4V29L14.7941 28.9949C12.6807 28.8878 11 27.1401 11 25V17C11 14.7909 12.7909 13 15 13H27C29.2091 13 31 14.7909 31 17V25L30.9949 25.2059C30.8912 27.2512 29.2512 28.8912 27.2059 28.9949L27 29V27.4C28.3255 27.4 29.4 26.3255 29.4 25Z" fill="#F9BD22"/>
<path d="M26.4879 17.1856C26.8273 16.9027 27.3316 16.9485 27.6144 17.2879C27.8973 17.6273 27.8515 18.1316 27.5121 18.4145L24.073 21.2805C22.293 22.7639 19.707 22.7639 17.9269 21.2805L14.4879 18.4145C14.1485 18.1316 14.1027 17.6273 14.3855 17.2879C14.6684 16.9485 15.1727 16.9027 15.5121 17.1856L18.9516 20.0516C20.1382 21.0403 21.8618 21.0403 23.0484 20.0516L26.4879 17.1856Z" fill="#F9BD22"/>
</svg>
