<svg width="42" height="42" viewBox="0 0 42 42" fill="none" xmlns="http://www.w3.org/2000/svg"><g clip-path="url(#clip0_5372_32593)">
<path d="M23.0408 12.3476C23.1805 11.9286 23.6335 11.7023 24.0525 11.8418C24.4717 11.9815 24.699 12.4344 24.5594 12.8535L18.9588 29.6533C18.819 30.0724 18.3662 30.2989 17.9471 30.1591C17.528 30.0194 17.3015 29.5666 17.4412 29.1474L23.0408 12.3476ZM15.2293 15.54C15.4978 15.1916 16.0067 15.1204 16.366 15.3808C16.7252 15.6413 16.7996 16.135 16.531 16.4834L12.7713 21.3603L16.531 26.2373C16.7995 26.5857 16.7252 27.0794 16.366 27.3398C16.0068 27.6001 15.4978 27.529 15.2293 27.1806L11.2332 21.9961C10.9427 21.6191 10.9428 21.1015 11.2332 20.7246L15.2293 15.54ZM25.6336 15.3799C25.9928 15.1195 26.5018 15.1916 26.7703 15.54L30.7664 20.7246C31.0569 21.1015 31.0569 21.6191 30.7664 21.9961L26.7703 27.1806C26.5017 27.5289 25.9928 27.6002 25.6336 27.3398C25.2745 27.0793 25.201 26.5856 25.4695 26.2373L29.2283 21.3603L25.4695 16.4824C25.2012 16.134 25.2744 15.6402 25.6336 15.3799Z" fill="#AD13C1"/>
</g>
<defs>
<clipPath id="clip0_5372_32593">
<rect width="20" height="20" fill="white" transform="translate(11 11)"/>
</clipPath>
</defs>
</svg>
