<svg width="16" height="16" viewBox="0 0 16 16" fill="none" xmlns="http://www.w3.org/2000/svg">
<g clip-path="url(#clip0_5479_32387)">
<path fill-rule="evenodd" clip-rule="evenodd" d="M5.56307 2.90123C5.17053 3.44945 5 4.30424 5 5.5V7C5 7.55228 4.55228 8 4 8C3.44772 8 3 7.55228 3 7V5.5C3 4.21326 3.1628 2.81805 3.93693 1.73689C4.76448 0.581132 6.12178 0 8 0C9.87822 0 11.2355 0.581132 12.0631 1.73689C12.8372 2.81805 13 4.21326 13 5.5V7C13 7.55228 12.5523 8 12 8C11.4477 8 11 7.55228 11 7V5.5C11 4.30424 10.8295 3.44945 10.4369 2.90123C10.0978 2.42762 9.45511 2 8 2C6.54489 2 5.90218 2.42762 5.56307 2.90123Z" fill="black"/>
<path fill-rule="evenodd" clip-rule="evenodd" d="M6 11C6 9.89543 6.89543 9 8 9C9.10457 9 10 9.89543 10 11C10 12.1046 9.10457 13 8 13C6.89543 13 6 12.1046 6 11Z" fill="black"/>
<path fill-rule="evenodd" clip-rule="evenodd" d="M2.38966 8.3908C2.19883 8.57254 2 8.9995 2 10.3333V11.6667C2 13.0005 2.19883 13.4275 2.38966 13.6092C2.59777 13.8074 3.08706 14 4.5 14H11.5C12.9129 14 13.4022 13.8074 13.6103 13.6092C13.8012 13.4275 14 13.0005 14 11.6667V10.3333C14 8.9995 13.8012 8.57254 13.6103 8.3908C13.4022 8.1926 12.9129 8 11.5 8H4.5C3.08706 8 2.59777 8.1926 2.38966 8.3908ZM1.01034 6.94253C1.85223 6.14074 3.11294 6 4.5 6H11.5C12.8871 6 14.1478 6.14074 14.9897 6.94253C15.8488 7.76079 16 9.0005 16 10.3333V11.6667C16 12.9995 15.8488 14.2392 14.9897 15.0575C14.1478 15.8593 12.8871 16 11.5 16H4.5C3.11294 16 1.85223 15.8593 1.01034 15.0575C0.151172 14.2392 0 12.9995 0 11.6667V10.3333C0 9.0005 0.151172 7.76079 1.01034 6.94253Z" fill="black"/>
</g>
<defs>
<clipPath id="clip0_5479_32387">
<rect width="16" height="16" fill="white"/>
</clipPath>
</defs>
</svg>
