<svg width="42" height="42" viewBox="0 0 42 42" fill="none" xmlns="http://www.w3.org/2000/svg"><g clip-path="url(#clip0_5375_32630)">
<path d="M16.6 24.9633L16.6133 25.0395L16.6023 25.148C16.6009 25.1622 16.6 25.1794 16.6 25.2C16.6 25.4517 16.8249 25.8951 17.6809 26.323C18.489 26.7271 19.6614 27 21 27C22.3386 27 23.511 26.7271 24.3191 26.323C25.1751 25.8951 25.4 25.4517 25.4 25.2C25.4 25.1841 25.3991 25.1669 25.3973 25.148L25.3863 25.0395L25.4 24.9609V20.2H16.6V24.9633ZM27 25C27 25.0273 26.9974 25.0531 26.9957 25.0773C26.9981 25.1176 27 25.1585 27 25.2C27 26.3842 26.0608 27.2409 25.0348 27.7539C23.9609 28.2909 22.5332 28.6 21 28.6C19.4668 28.6 18.0391 28.2909 16.9652 27.7539C15.9392 27.2409 15 26.3842 15 25.2C15 25.1606 15.0016 25.1202 15.0039 25.0789C15.0022 25.0537 15 25.0274 15 25V19.8C15 19.1373 15.5373 18.6 16.2 18.6H25.8C26.4627 18.6 27 19.1373 27 19.8V25Z" fill="#FE7474"/>
<path d="M11.8952 19.5516C11.7665 19.4915 11.7665 19.3085 11.8952 19.2484L20.8232 15.0825C20.9353 15.0302 21.0648 15.0302 21.1769 15.0825L30.1049 19.2484C30.2336 19.3085 30.2336 19.4915 30.1049 19.5516L21.1769 23.7175C21.0648 23.7698 20.9353 23.7698 20.8232 23.7175L11.8952 19.5516Z" fill="white"/>
<path d="M11.5568 20.2764C10.8127 19.9291 10.8127 18.8709 11.5568 18.5236L20.4849 14.3574C20.791 14.2146 21.1416 14.206 21.4533 14.3309L21.5152 14.3574L30.4432 18.5236C31.1874 18.8709 31.1874 19.9291 30.4432 20.2764L21.5152 24.4426C21.1887 24.5949 20.8114 24.5949 20.4849 24.4426L11.5568 20.2764ZM20.9997 22.9173L28.5376 19.4L20.9997 15.8827L13.4619 19.4L20.9997 22.9173Z" fill="#FE7474"/>
<path d="M31 21.1453C31 21.5871 30.6418 21.9453 30.2 21.9453C29.7582 21.9453 29.4 21.5871 29.4 21.1453L29.4 19.4C29.4 18.9582 29.7582 18.6 30.2 18.6C30.6418 18.6 31 18.9582 31 19.4L31 21.1453Z" fill="#FE7474"/>
</g>
<defs>
<clipPath id="clip0_5375_32630">
<rect width="20" height="20" fill="white" transform="translate(11 11)"/>
</clipPath>
</defs>
</svg>
