<svg width="42" height="42" viewBox="0 0 42 42" fill="none" xmlns="http://www.w3.org/2000/svg"><path d="M19.4 12.0002C19.8418 12.0002 20.2 12.3583 20.2 12.8002C20.2 13.242 19.8418 13.6002 19.4 13.6002L11.8 13.6002C11.3582 13.6002 11 13.242 11 12.8002C11 12.3583 11.3582 12.0002 11.8 12.0002L19.4 12.0002Z" fill="#20BEE0"/>
<path d="M30.2 12C30.6419 12 31 12.3582 31 12.8C31 13.2418 30.6419 13.6 30.2 13.6H22.6C22.1582 13.6 21.8 13.2418 21.8 12.8C21.8 12.3582 22.1582 12 22.6 12H30.2Z" fill="#20BEE0"/>
<path d="M11.8 17.6C11.8 16.4954 12.6955 15.6 13.8 15.6H17.4C18.5046 15.6 19.4 16.4954 19.4 17.6V24.4C19.4 25.5046 18.5046 26.4 17.4 26.4H13.8C12.6955 26.4 11.8 25.5046 11.8 24.4V17.6Z" fill="#20BEE0"/>
<path d="M18.6 17.6C18.6 16.9372 18.0627 16.4 17.4 16.4H13.8C13.1373 16.4 12.6 16.9372 12.6 17.6V24.4C12.6 25.0627 13.1373 25.6 13.8 25.6H17.4C18.0627 25.6 18.6 25.0627 18.6 24.4V17.6ZM20.2 24.4C20.2 25.9464 18.9464 27.2 17.4 27.2H13.8C12.2536 27.2 11 25.9464 11 24.4V17.6C11 16.0536 12.2536 14.8 13.8 14.8H17.4C18.9464 14.8 20.2 16.0536 20.2 17.6V24.4Z" fill="#20BEE0"/>
<path d="M22.6 17.6C22.6 16.4954 23.4954 15.6 24.6 15.6H28.2C29.3045 15.6 30.2 16.4954 30.2 17.6V27.2C30.2 28.3046 29.3045 29.2 28.2 29.2H24.6C23.4954 29.2 22.6 28.3046 22.6 27.2V17.6Z" fill="#EDF9FC"/>
<path d="M29.4 17.6C29.4 16.9372 28.8628 16.4 28.2 16.4H24.6C23.9373 16.4 23.4 16.9372 23.4 17.6V27.2C23.4 27.8627 23.9373 28.4 24.6 28.4H28.2C28.8628 28.4 29.4 27.8627 29.4 27.2V17.6ZM31 27.2C31 28.7464 29.7464 30 28.2 30H24.6C23.0537 30 21.8 28.7464 21.8 27.2V17.6C21.8 16.0536 23.0537 14.8 24.6 14.8H28.2C29.7464 14.8 31 16.0536 31 17.6V27.2Z" fill="#20BEE0"/>
</svg>
