<svg width="42" height="42" viewBox="0 0 42 42" fill="none" xmlns="http://www.w3.org/2000/svg"><g clip-path="url(#clip0_5372_32269)">
<path d="M14.2 14.6C14.2 12.8327 15.6326 11.4 17.4 11.4H27.4C29.1673 11.4 30.6 12.8327 30.6 14.6V24.6C30.6 26.3673 29.1673 27.8 27.4 27.8H17.4C15.6326 27.8 14.2 26.3673 14.2 24.6V14.6Z" fill="#E7F3FF"/>
<path d="M27.4 26.2V27.8H17.4V26.2H27.4ZM29 24.6V14.6C29 13.7163 28.2836 13 27.4 13H17.4C16.5163 13 15.8 13.7163 15.8 14.6V24.6C15.8 25.4836 16.5163 26.2 17.4 26.2V27.8L17.2351 27.7957C15.5444 27.7099 14.2 26.312 14.2 24.6V14.6C14.2 12.888 15.5444 11.4901 17.2351 11.4043L17.4 11.4H27.4C29.1673 11.4 30.6 12.8327 30.6 14.6V24.6C30.6 26.3673 29.1673 27.8 27.4 27.8V26.2C28.2836 26.2 29 25.4836 29 24.6Z" fill="#247FF9"/>
<path d="M17.6343 20.1338C17.3219 19.8214 17.3219 19.3149 17.6343 19.0025C17.9467 18.6901 18.4532 18.6901 18.7657 19.0025L21.2336 21.4704L26.0362 16.6679C26.3486 16.3556 26.8551 16.3556 27.1675 16.6679C27.4799 16.9803 27.4799 17.4869 27.1675 17.7993L22.0822 22.8847C21.6135 23.3533 20.8537 23.3533 20.3851 22.8847L17.6343 20.1338Z" fill="#2477F9"/>
<path d="M11 26.2V20.2C11 19.7582 11.3582 19.4 11.8 19.4C12.2418 19.4 12.6 19.7582 12.6 20.2V26.2C12.6 27.9673 14.0327 29.4 15.8 29.4H21.8C22.2418 29.4 22.6 29.7582 22.6 30.2C22.6 30.6418 22.2418 31 21.8 31H15.8C13.149 31 11 28.851 11 26.2Z" fill="#2477F9"/>
</g>
<defs>
<clipPath id="clip0_5372_32269">
<rect width="20" height="20" fill="white" transform="translate(11 11)"/>
</clipPath>
</defs>
</svg>
