<svg width="42" height="42" viewBox="0 0 42 42" fill="none" xmlns="http://www.w3.org/2000/svg"><g clip-path="url(#clip0_5372_32567)">
<path d="M20.9999 30.6C22.5999 30.6 23.9599 29.52 24.3599 28C24.5199 27.44 24.0399 27 23.4799 27H18.4799C17.9199 27 17.4799 27.48 17.5999 28C18.0399 29.52 19.3999 30.6 20.9999 30.6Z" fill="#A244FA"/>
<path d="M13 21.96C12.64 22.52 12.4 23.2 12.36 23.88V24.08C12.36 25 12.64 25.84 13.24 26.56M13.24 26.56C13.28 26.56 13.28 26.56 13.24 26.56C14.04 27.36 15.08 27.88 16.2 28C19.36 28.36 22.56 28.36 25.76 28C26.88 27.88 27.92 27.4 28.68 26.6C29.28 25.92 29.6 25 29.56 24.12V23.92C29.52 23.24 29.32 22.6 28.92 22.04V22C28.36 21.4 28 20.64 27.8 19.88V18.8V18.76C27.8 18.44 27.8 18.08 27.76 17.76C27.48 14.44 24.2 12.2 21.04 12.2H20.96C17.8 12.2 14.52 14.44 14.24 17.76C14.2 18.4 14.2 19.04 14.2 19.68C14.2 19.76 14.2 19.8 14.16 19.88C13.96 20.64 13.6 21.36 13.04 21.96C13.04 21.96 13.04 21.96 13.04 22" fill="#F0EDFF"/>
<path d="M21 29.04C19.36 29.04 17.76 28.96 16.12 28.8C14.8 28.68 13.6 28.08 12.68 27.16C12.68 27.16 12.68 27.16 12.64 27.12C12.64 27.12 12.64 27.12 12.6 27.08C11.88 26.24 11.52 25.16 11.56 24.08V23.88V23.84C11.6 23.04 11.88 22.24 12.32 21.56C12.32 21.52 12.36 21.52 12.36 21.52C12.36 21.48 12.4 21.48 12.4 21.44C12.84 20.96 13.16 20.36 13.32 19.72C13.32 19.04 13.32 18.4 13.4 17.76C13.8 13.8 17.64 11.4 20.96 11.4H21.04C24.36 11.4 28.2 13.8 28.56 17.68C28.6 18.08 28.6 18.44 28.6 18.76L28.64 19.68C28.8 20.32 29.12 20.88 29.56 21.4L29.6 21.44C29.6 21.44 29.64 21.48 29.64 21.52C30.12 22.2 30.36 23 30.4 23.84V23.88V24.08C30.44 25.2 30.04 26.24 29.32 27.12L29.28 27.16C28.4 28.08 27.16 28.68 25.84 28.8C24.24 28.96 22.6 29.04 21 29.04ZM13.88 26.04C14.52 26.68 15.4 27.12 16.32 27.2H16.36C19.44 27.52 22.6 27.52 25.72 27.2C26.68 27.12 27.52 26.72 28.16 26.04C28.6 25.48 28.84 24.8 28.84 24.08V23.84C28.8 23.36 28.64 22.84 28.36 22.44C27.76 21.76 27.28 20.88 27.08 19.96C27.08 19.92 27.08 19.88 27.08 19.8L27 18.84V18.8C27 18.48 27 18.16 26.96 17.84C26.68 14.84 23.68 13 21.04 13H20.96C18.32 13 15.32 14.84 15.04 17.8C15 18.4 15 18.96 15 19.64C15 19.76 15 19.88 14.96 20C14.76 20.88 14.32 21.72 13.68 22.4C13.4 22.84 13.24 23.36 13.2 23.84V24C13.16 24.8 13.4 25.48 13.88 26.04Z" fill="#A244FA"/>
</g>
<defs>
<clipPath id="clip0_5372_32567">
<rect width="20" height="20" fill="white" transform="translate(11 11)"/>
</clipPath>
</defs>
</svg>
