<svg width="42" height="42" viewBox="0 0 42 42" fill="none" xmlns="http://www.w3.org/2000/svg"><path d="M12.2 16.2C12.2 13.9909 13.9908 12.2 16.2 12.2H25.8C28.0091 12.2 29.8 13.9909 29.8 16.2V25C29.8 27.651 27.6509 29.8 25 29.8H16.2C13.9908 29.8 12.2 28.0091 12.2 25.8V16.2Z" fill="#FBEFFD"/>
<path d="M12.2 16.2C12.2 13.9909 13.9908 12.2 16.2 12.2H25.7999C28.0091 12.2 29.8 13.9909 29.8 16.2V25C29.8 27.651 27.6509 29.8 25 29.8H16.2C13.9908 29.8 12.2 28.0091 12.2 25.8V16.2Z" fill="#FBEFFD"/>
<path d="M28.6 16.2V17.8H13.8V16.2H28.6Z" fill="#AD13C1"/>
<path d="M22.709 23.224C22.5884 22.9024 22.9024 22.5884 23.224 22.709L30.6154 25.4808C30.9769 25.6163 30.9556 26.1348 30.5841 26.2401L27.6295 27.0782C27.3625 27.1539 27.1539 27.3625 27.0782 27.6295L26.2401 30.5841C26.1348 30.9556 25.6163 30.9769 25.4808 30.6154L22.709 23.224Z" fill="#AD13C1"/>
<path d="M25.8 12.2C28.0091 12.2 29.8 13.9909 29.8 16.2V23.55L28.2 22.95V16.2C28.2 14.8745 27.1254 13.8 25.8 13.8H16.2C14.8745 13.8 13.8 14.8745 13.8 16.2V25.8C13.8 27.1255 14.8745 28.2 16.2 28.2H22.95L23.55 29.8H16.2C13.9908 29.8 12.2 28.0091 12.2 25.8V16.2C12.2 13.9909 13.9908 12.2 16.2 12.2H25.8Z" fill="#AD13C1"/>
</svg>
